Coordinates
version=1
nRows=26
nColumns=22
inDegrees=yes

Units are S.I. units (second, meters, Newtons, ...)
If the header above contains a line with 'inDegrees', this indicates whether rotational values are in degrees (yes) or radians (no).

endheader
time	pelvis_tilt	pelvis_list	pelvis_rotation	pelvis_tx	pelvis_ty	pelvis_tz	hip_flexion_r	hip_adduction_r	hip_rotation_r	knee_angle_r	ankle_angle_r	subtalar_angle_r	hip_flexion_l	hip_adduction_l	hip_rotation_l	knee_angle_l	ankle_angle_l	subtalar_angle_l	lumbar_extension	lumbar_bending	lumbar_rotation
      0.87000000	      4.42408560	     -1.82343142	      4.32907388	     -0.71337523	      0.94538008	      0.10298830	     19.16832748	     -0.12870005	     -3.96317952	    -54.29809749	      2.35072620	      7.95807930	     -3.47530567	      2.01982421	     -3.52499964	    -18.76946985	     23.44274389	    -11.47252017	    -13.22185686	      3.02976028	    -12.67791333
      0.88000000	      4.67985024	     -1.84325821	      4.80325795	     -0.70275595	      0.94545584	      0.10217129	     19.96840057	     -0.36188942	     -4.73455563	    -52.34273543	      2.85231415	      7.48876663	     -4.87863819	      1.87621600	     -3.33705128	    -17.94186055	     23.60502736	    -11.02497956	    -13.45460490	      3.18001622	    -13.09567539
      0.89000000	      4.92995054	     -1.82471915	      5.27664722	     -0.69207910	      0.94522827	      0.10138275	     20.63878218	     -0.62808204	     -5.54847084	    -50.12510931	      3.21157666	      7.11437037	     -6.26272101	      1.75721317	     -3.14543671	    -17.15539586	     23.79204133	    -10.60045312	    -13.68789531	      3.28554250	    -13.46599067
      0.90000000	      5.17440915	     -1.76702196	      5.75453187	     -0.68133939	      0.94470348	      0.10063168	     21.17604819	     -0.90893385	     -6.37742662	    -47.64936425	      3.39718459	      6.86017016	     -7.62423899	      1.65972684	     -2.95540040	    -16.41987878	     23.98804136	    -10.23605405	    -13.91944328	      3.34595780	    -13.83923681
      0.91000000	      5.39866032	     -1.67924955	      6.21823544	     -0.67052344	      0.94385600	      0.09994253	     21.60182589	     -1.18305677	     -7.20915372	    -44.93405346	      3.40640415	      6.69743408	     -8.94605765	      1.57917977	     -2.77748410	    -15.74272580	     24.21589297	     -9.92314034	    -14.13269194	      3.36713534	    -14.17298309
      0.92000000	      5.59594634	     -1.56773235	      6.67239272	     -0.65962930	      0.94268150	      0.09931701	     21.92640167	     -1.43187732	     -8.02358142	    -41.99963384	      3.24178399	      6.65120516	    -10.21496075	      1.50869422	     -2.61694660	    -15.13380926	     24.47118376	     -9.68484218	    -14.32067411	      3.35569141	    -14.47708460
      0.93000000	      5.75826405	     -1.44082521	      7.10929561	     -0.64864620	      0.94116860	      0.09877266	     22.16699813	     -1.63790505	     -8.80169453	    -38.87990877	      2.93818104	      6.72447143	    -11.41658529	      1.44306672	     -2.47904928	    -14.60556861	     24.76883428	     -9.52715598	    -14.47338510	      3.31852084	    -14.74641689
      0.94000000	      5.89141444	     -1.30313456	      7.52707666	     -0.63758032	      0.93933615	      0.09831984	     22.32519046	     -1.77961591	     -9.48352037	    -35.61121528	      2.54264622	      6.92515073	    -12.55258442	      1.37945434	     -2.35962780	    -14.16560511	     25.11449943	     -9.44562326	    -14.60049093	      3.26237386	    -14.98805306
      0.95000000	      5.98644752	     -1.16483960	      7.93695711	     -0.62643124	      0.93717129	      0.09794195	     22.42877498	     -1.86360082	    -10.08349266	    -32.26310567	      2.11155268	      7.24991355	    -13.59383543	      1.30612482	     -2.27004687	    -13.84744156	     25.52769268	     -9.44053817	    -14.69051662	      3.19916103	    -15.20160394
      0.96000000	      6.04879258	     -1.04163949	      8.32707962	     -0.61514846	      0.93469894	      0.09767441	     22.49227970	     -1.87521307	    -10.57410407	    -28.91466833	      1.71767483	      7.72048237	    -14.56183259	      1.21007167	     -2.21272293	    -13.62195785	     26.00642361	     -9.49711674	    -14.73982125	      3.13974547	    -15.37526534
      0.97000000	      6.09098397	     -0.93961841	      8.73130928	     -0.60380069	      0.93195713	      0.09748334	     22.51959026	     -1.82522330	    -10.93365903	    -25.64330060	      1.39956066	      8.24214011	    -15.41211479	      1.07163399	     -2.18043336	    -13.59014613	     26.57809741	     -9.57323073	    -14.77313881	      3.10155757	    -15.54430291
      0.98000000	      6.12617152	     -0.87373162	      9.13715093	     -0.59230542	      0.92900479	      0.09734495	     22.51717289	     -1.71401062	    -11.14895332	    -22.54762959	      1.21702958	      8.85494653	    -16.20071547	      0.88426203	     -2.15141123	    -13.67447192	     27.20477367	     -9.65255987	    -14.78837519	      3.10754188	    -15.70595415
      0.99000000	      6.17453988	     -0.85237294	      9.56195269	     -0.58064690	      0.92591184	      0.09725793	     22.48609160	     -1.55524911	    -11.26028828	    -19.72929036	      1.16723705	      9.50469350	    -16.93873568	      0.62722633	     -2.11838462	    -13.89098029	     27.88031256	     -9.71695563	    -14.80223483	      3.16941416	    -15.90446751
      1.00000000	      6.25445548	     -0.87952906	     10.02727225	     -0.56886370	      0.92275265	      0.09716133	     22.42984438	     -1.36972232	    -11.32865695	    -17.28670550	      1.24457098	     10.07569123	    -17.61066582	      0.28929428	     -2.04686582	    -14.29983694	     28.58338879	     -9.75817756	    -14.84227142	      3.30314353	    -16.12013723
      1.01000000	      6.38210774	     -0.96954467	     10.52142433	     -0.55688174	      0.91961553	      0.09705901	     22.35182826	     -1.14445192	    -11.39349686	    -15.31024564	      1.41965525	     10.56397668	    -18.26871837	     -0.14166473	     -1.91495915	    -14.83223146	     29.26467141	     -9.78372612	    -14.91005839	      3.52675827	    -16.34795114
      1.02000000	      6.52821479	     -1.12915937	     11.04040537	     -0.54469129	      0.91649854	      0.09693643	     22.31925645	     -0.88629826	    -11.51519464	    -13.90126237	      1.66609439	     10.84300946	    -18.87060363	     -0.66476537	     -1.71890713	    -15.50487350	     29.93846938	     -9.79095329	    -14.96645454	      3.84420231	    -16.57549879
      1.03000000	      6.74527639	     -1.35561439	     11.56374219	     -0.53223879	      0.91357755	      0.09682587	     22.26205265	     -0.56815370	    -11.64914994	    -13.05420970	      1.85546799	     11.01638095	    -19.50913812	     -1.28125871	     -1.47828904	    -16.24840610	     30.48028872	     -9.79696644	    -15.06592816	      4.25966133	    -16.82630963
      1.04000000	      6.99123869	     -1.65052442	     12.07995792	     -0.51948088	      0.91083871	      0.09674567	     22.22707585	     -0.19025913	    -11.83324750	    -12.77245231	      1.93238493	     10.99860851	    -20.13432041	     -1.98137307	     -1.20093956	    -17.07404966	     30.89681205	     -9.79114624	    -15.15214207	      4.75689425	    -17.04707461
      1.05000000	      7.27765344	     -2.02070783	     12.57383116	     -0.50639915	      0.90834783	      0.09672709	     22.20847345	      0.26922854	    -12.03485143	    -13.04575197	      1.81307632	     10.65506074	    -20.76889526	     -2.76786309	     -0.88727442	    -17.96034044	     31.14161792	     -9.73222312	    -15.23722152	      5.34530611	    -17.23480903
      1.06000000	      7.51993032	     -2.45871613	     13.03351904	     -0.49297150	      0.90600999	      0.09681219	     22.29789903	      0.79128108	    -12.25143552	    -13.83416715	      1.51211148	      9.93960235	    -21.30141643	     -3.61575704	     -0.56392023	    -18.94968799	     31.17367595	     -9.59183184	    -15.21744448	      5.98357532	    -17.39385745
      1.07000000	      7.71600082	     -2.95161126	     13.45447421	     -0.47920447	      0.90387426	      0.09701202	     22.49065086	      1.36347252	    -12.49663533	    -15.06979465	      0.95541634	      9.05623985	    -21.73595769	     -4.50480334	     -0.21403204	    -20.02834547	     30.99424367	     -9.37824411	    -15.09870304	      6.65191695	    -17.50322926
      1.08000000	      7.86835285	     -3.49130167	     13.82434384	     -0.46508554	      0.90198962	      0.09734905	     22.75841120	      1.98672572	    -12.75942269	    -16.63490738	      0.18687860	      7.98967790	    -22.07589400	     -5.42241963	      0.14486844	    -21.19479708	     30.53468995	     -9.05496599	    -14.88413800	      7.33642704	    -17.56822111
      1.09000000	      7.97027589	     -4.05557866	     14.13452021	     -0.45063260	      0.90039019	      0.09784397	     23.08149865	      2.64503015	    -13.01621668	    -18.41311433	     -0.69113460	      6.73883454	    -22.30964893	     -6.33913699	      0.51202239	    -22.45521818	     29.71487575	     -8.58335399	    -14.57620918	      8.00551090	    -17.59616037
      1.10000000	      8.03055254	     -4.62468640	     14.37473409	     -0.43587939	      0.89912394	      0.09849117	     23.41994792	      3.32859466	    -13.23937084	    -20.29174243	     -1.50905807	      5.38302787	    -22.43961669	     -7.22799704	      0.88242315	    -23.81861508	     28.49150735	     -7.95229777	    -14.19657535	      8.63923054	    -17.56709422
      1.11000000	      8.06114413	     -5.18520552	     14.54711552	     -0.42087625	      0.89823273	      0.09928931	     23.72671115	      4.03487189	    -13.41255484	    -22.16308282	     -2.12612923	      4.00801177	    -22.45857675	     -8.07810716	      1.24456232	    -25.30410357	     26.83111740	     -7.15801884	    -13.76811260	      9.22560445	    -17.49423333
      1.12000000	      8.07042060	     -5.70245371	     14.67164799	     -0.40576994	      0.89773281	      0.10019639	     23.96540244	      4.72741722	    -13.53430990	    -23.95038298	     -2.51765551	      2.72171965	    -22.32067626	     -8.86573486	      1.58921148	    -26.98490609	     24.74273756	     -6.21180179	    -13.32786518	      9.73603025	    -17.41357689
